<svg width="2241" height="735" viewBox="0 0 2241 735" fill="none" xmlns="http://www.w3.org/2000/svg">
<path d="M2.5 493.5C145 540 470.7 573.6 633.5 336C837 39 649 -367.5 471 695C418.5 875.5 605.5 283.5 679 432C711 509.5 560 693 679 727C798 761 974 461.5 889.5 432C805 402.5 686 695 889.5 695C1093 695 1346.5 191.5 1250.5 125.5C1154.5 59.5001 1040 686 1250.5 683.5C1461 681 1662.5 203.5 1573 164.5C1483.5 125.5 1280.5 594.5 1557 711C1737.5 784 1911.5 505 1785.5 468.5C1659.5 432 1659.5 711 1883.5 711C2107.5 711 2224.5 683.5 2240.5 683.5" stroke="black" stroke-width="10"/>
</svg>
