<svg width="501" height="513" viewBox="0 0 501 513" fill="none" xmlns="http://www.w3.org/2000/svg">
<path d="M189.816 315.109C165.453 315.109 146.25 311.184 124.472 299.559C95.8457 284.277 73.032 253.776 66.5098 221.648C60.2089 190.61 62.9478 157.508 79.8615 130.228C86.7756 119.076 94.2912 109.515 103.58 100.226C114.261 89.5461 124.774 84.1082 138.137 77.6071C144.856 74.3386 152.216 69.6877 159.814 69.1249C162.333 68.9382 160.359 66.8198 160.05 64.9623C158.945 58.3325 156.801 55.8816 158.715 48.7047C162.1 36.0113 182.538 23.1044 195.785 30.9549C201.552 34.3721 204.635 38.5189 208.98 43.6782C209.597 44.4117 210.572 57.1869 211.336 57.1869C212.566 57.1869 216.061 53.8956 218.247 53.6527C223.125 53.1107 227.869 52.408 232.541 50.7467C241.503 47.5605 256.147 48.0325 264.742 51.375C271.356 53.9468 277.716 53.0908 283.906 57.0298C286.27 58.5343 290.296 58.0078 293.017 58.9148C294.761 59.4964 294.593 53.405 295.216 52.1604C301.104 40.384 310.248 31.5472 324.118 35.5101C336.67 39.0965 346.555 53.7672 343.596 67.0828C341.503 76.4988 344.075 72.9447 350.978 76.1934C358.435 79.7023 365.923 82.959 373.598 86.7961C381.276 90.6356 386.792 95.8475 392.054 102.425C395.573 106.824 397.007 112.44 400.458 116.877C405.11 122.858 409.768 127.457 412.396 134.862C417.087 148.081 418.836 161.882 418.836 175.859C418.836 182.008 418.952 188.169 418.836 194.316C418.71 200.99 414.94 208.009 413.181 214.422C406.533 238.669 394.013 264.378 376.111 282.28C365.042 293.349 352.181 302.524 337.47 308.041C332.559 309.882 327.47 311.214 322.704 313.067C319.904 314.156 311.375 316.523 314.379 316.523C321.877 316.523 330.064 318.082 337.47 319.429C346.514 321.073 356.649 322.701 365.115 326.733C369.833 328.98 376.103 334.751 376.425 340.556C376.731 346.056 364.03 346.211 359.539 346.211C349.143 346.211 339.262 343.383 329.066 343.383C325.61 343.383 328.603 368.85 327.26 373.385C325.894 377.993 327.802 382.59 325.532 387.13C323.9 390.393 322.36 394.023 320.976 397.418C318.454 403.61 313.254 410.796 308.567 415.482C300.733 423.316 288.324 430.545 277.387 432.368C251.198 436.733 223.92 440.288 196.885 439.515C190.319 439.328 189.331 435.97 184.161 439.201C181.679 440.752 177.384 444.251 175.365 446.27C171.41 450.225 167.049 449.735 161.542 449.411C154.888 449.02 161.217 434.512 162.956 432.525C171.411 422.862 177.2 411.042 184.083 400.717C185.033 399.291 183.2 404.054 182.434 405.586C181.896 406.662 181.498 410.891 180.549 411.163C178.484 411.752 173.443 417.621 170.339 412.655C168.909 410.367 167.197 411.809 167.197 408.414C167.197 406.287 166.097 403.779 165.469 401.659C163.239 394.134 164.37 385.472 164.37 377.626C164.37 365.687 173.98 356.144 175.601 344.797C176.014 341.906 182.003 336.603 176.307 341.263C169.079 347.177 164.789 347.624 155.887 347.624C149.239 347.624 143.692 348.428 138.216 344.169C135.834 342.316 120.609 338.883 126.514 332.388C133.362 324.855 150.574 327.963 159.5 326.34C169.367 324.546 177.19 320.716 185.575 316.523" stroke="black" stroke-width="3" stroke-linecap="round"/>
<path d="M318.463 402.759C310.562 399.599 329.097 418.28 337.47 419.802C342.327 420.685 346.097 422.08 347.837 427.106C349.195 431.03 349.108 439.515 343.831 439.515C335.828 439.515 324.241 438.556 317.05 434.96C310.764 431.817 306.199 424.589 300.085 422.551" stroke="black" stroke-width="3" stroke-linecap="round"/>
<path d="M162.956 159.602C173.458 155.45 184.828 151.183 193.743 144.051C197.834 140.778 201.765 135.827 206.781 134.155" stroke="black" stroke-width="3" stroke-linecap="round"/>
<path d="M277.466 136.983C286.232 137.859 294.63 145.089 303.227 147.507C311.007 149.695 318.783 152.533 326.945 152.533" stroke="black" stroke-width="3" stroke-linecap="round"/>
<path d="M206.781 162.429C206.202 157.798 194.775 166.301 193.743 168.084C190.655 173.418 188.789 179.408 190.916 185.363C195.438 198.024 212.586 203.119 222.253 193.452C227.338 188.367 230.155 176.437 222.96 172.325C216.954 168.893 211.216 155.232 202.54 161.016" stroke="black" stroke-width="3" stroke-linecap="round"/>
<path d="M294.43 161.016C285.796 161.016 274.747 173.327 279.194 182.221C284.435 192.704 295.174 193.938 305.426 190.389C327.101 182.886 309.556 156.774 294.43 156.774" stroke="black" stroke-width="3" stroke-linecap="round"/>
<path d="M236.468 226.046C245.972 243.997 258.713 219.989 259.873 221.019C263.754 224.469 267.572 232.435 273.853 229.58C276.631 228.318 280.411 221.57 281.707 218.977" stroke="black" stroke-width="3" stroke-linecap="round"/>
<path d="M206.781 169.498C196.426 169.498 197.564 190.068 208.823 183.635C217.226 178.833 207.937 165.642 205.367 169.498" stroke="black" stroke-width="3" stroke-linecap="round"/>
<path d="M216.677 179.394C211.558 180.033 207.517 193.803 215.891 189.996C223.274 186.641 221.601 180.807 213.849 180.807" stroke="black" stroke-width="3" stroke-linecap="round"/>
<path d="M298.671 168.084C293.345 163.823 281.554 175.818 290.975 180.101C299.292 183.881 305.216 166.67 297.258 166.67" stroke="black" stroke-width="3" stroke-linecap="round"/>
<path d="M304.326 177.98C296.373 177.98 303.128 190.08 309.981 181.514C314.439 175.942 304.348 172.24 302.913 177.98" stroke="black" stroke-width="3" stroke-linecap="round"/>
<path d="M362.288 186.462C352.407 185.474 349.538 186.457 339.983 190.703C332.257 194.137 327.233 204.807 332.914 211.909C338.344 218.696 355.654 220.569 363.702 218.663C373.491 216.345 382.92 214.455 391.976 210.574C406.195 204.48 397.896 187.923 386.4 185.049C376.998 182.698 365.705 177.587 356.633 183.635" stroke="black" stroke-width="3" stroke-linecap="round"/>
<path d="M350.978 190.703C350.404 198.463 344.531 204.823 339.669 210.495" stroke="black" stroke-width="3" stroke-linecap="round"/>
<path d="M366.529 190.703C364.325 197.314 360.162 202.738 358.047 209.081" stroke="black" stroke-width="3" stroke-linecap="round"/>
<path d="M379.252 192.117C379.252 198.272 375.506 203.356 373.598 209.082" stroke="black" stroke-width="3" stroke-linecap="round"/>
<path d="M171.438 211.909C167.503 208.761 155.071 207.27 150.311 207.746C139.75 208.802 127.84 212.272 120.623 220.391C105.967 236.879 134.411 240.183 144.578 240.183C157.122 240.183 169.608 233.319 175.365 221.805C180.493 211.549 168.122 205.085 160.128 209.082" stroke="black" stroke-width="3" stroke-linecap="round"/>
<path d="M136.095 214.736C133.847 220.256 129.352 223.655 126.2 228.559C125.004 230.419 123.539 235.273 124.786 230.287" stroke="black" stroke-width="3" stroke-linecap="round"/>
<path d="M148.819 214.736C148.819 219.16 148.091 222.516 145.677 226.36C144.253 228.628 136.625 233.999 140.337 230.287" stroke="black" stroke-width="3" stroke-linecap="round"/>
<path d="M161.542 214.736C161.542 220.781 160.2 226.583 154.474 228.873" stroke="black" stroke-width="3" stroke-linecap="round"/>
</svg>
