<svg width="518" height="723" viewBox="0 0 518 723" fill="none" xmlns="http://www.w3.org/2000/svg">
<path d="M220 338.591C155.834 340.664 104 340.429 104 337C104 328 26 325 104 306C166.4 290.8 189.333 287 193 287C201.667 261.667 213.8 211 193 211C130 220 3.4 214.2 0.999996 119C-1.4 23.8 174 0.666661 262 0.999994C349 0.999991 521.8 24.6 517 119C512.2 213.4 385 219.667 322 211C314.333 235 304.6 283.8 327 287C355 291 456 291 461 314C461 323.908 363.914 332.185 271 336.561M220 338.591L232 457M220 338.591C236.413 338.06 253.634 337.378 271 336.561M220 338.591L271 336.561M232 457L193 462L217.5 499M232 457H271M242 536L279 510M242 536L217.5 499M242 536C231.479 536 213.435 535.336 200 533.153M242 536C228.664 557.811 210.498 589.406 195.062 620M242 536C245.667 543.333 254.8 557.2 262 554C269.2 550.8 276.333 544.667 279 542L287 554C299.333 543.636 321.8 521.907 313 517.909M279 510L271 457M279 510C284.476 506.152 297.33 510.125 313 517.909M271 457V336.561M327 620V713C280.667 719.667 183.8 729 167 713C157.202 703.668 173.46 662.815 195.062 620M327 620L287 583M327 620L361 641C364.721 638.947 368.08 636.215 371.105 633M389.531 598C392.665 587.683 394.369 577.82 395 571C374.525 555.46 339.681 531.161 313 517.909M389.531 598L430 613V641L435 494L454 499L402 487V438C404.476 437.471 407.16 436.925 410 436.377M389.531 598C385.72 610.547 379.793 623.765 371.105 633M371.105 633C360.839 649 431.424 669 468 677C476.333 603.667 492.8 453.2 492 438C491.792 434.044 487.604 431.718 481 430.553M410 436.377V338.591C435.333 334.787 486 329.463 486 338.591C486 347.718 482.667 403.702 481 430.553M410 436.377C432.335 432.065 464.349 427.618 481 430.553M421 347C418 349.333 413.8 354.4 421 356M217.5 499C203.333 506 176.8 521.6 184 528C186.562 530.278 192.578 531.947 200 533.153M200 533.153L136 593C138.564 595.223 141.627 597.745 145 600.356M195.062 620C191.36 623.72 184.718 623.03 177.009 620M145 600.356L78 683C77.3333 686.667 77.4 695.4 83 701C88.6 706.6 116.667 711.333 130 713C131.667 709 134 700 130 696C126 692 159.672 643.667 177.009 620M145 600.356C154.62 607.802 166.757 615.971 177.009 620M313 314C278.33 310.333 205.793 305.2 193 314M145 95C145.667 88.3333 144.8 76.2 136 81C124 87 124 89 130 95C142 95 139 99 136 101M217.5 189C205 217 184 274.4 200 280C216 285.6 228 287 232 287C245.333 263.667 270 214.2 262 203M444 367L435 381H454L444 367ZM322 87C329 88.3333 341.4 93 335 101C324.6 108.2 316 100 313 95L322 87Z" stroke="black"/>
</svg>
