<svg width="914" height="427" viewBox="0 0 914 427" fill="none" xmlns="http://www.w3.org/2000/svg">
<path d="M2 368C8.99153 381.983 18.0286 389.31 32.4444 394.5C60.1963 404.491 86.5354 413.74 116.222 417C136.101 419.183 155.872 422.021 175.778 424C198.296 426.239 221.284 425 243.889 425C281.537 425 319.645 422.396 355.667 410.389C392.697 398.045 428.626 385.199 463.222 366.778C502.469 345.88 534.347 315.947 563.111 282.389C587.704 253.698 606.569 222.399 623.222 188.556C636.763 161.037 650 133.011 650 101.778C650 84.4676 652.553 61.1845 639.944 47C633.067 39.2633 626.389 31.6946 617 27C596.393 16.6967 571.564 15.3932 549.556 21.5556C541.098 23.9238 531.958 29.0415 525.778 35.2222C514.965 46.0345 503.111 56.0955 491.556 66C485.412 71.2663 474.496 86.7728 486 92.2222C492.501 95.3017 510.958 100.676 515.778 92C519.226 85.7938 523.209 79.7148 526.556 73.5C531.071 65.1145 529 52.7145 529 43.5C529 33.358 526.978 26.2549 519.778 18.7778C513.808 12.5785 504.576 6.55921 496 5C487.828 3.5141 481.473 1.76464 473 2C461.207 2.32759 450.221 11.0909 441.778 18.4444C432.794 26.2687 425.153 36.4824 418.778 46.4444C408.323 62.7801 398.513 80.0697 392.5 98.5556C386.636 116.583 381.197 135.303 380.056 154.333C378.803 175.212 376.179 198.996 381 219.556C384.991 236.578 391.667 252.154 400 267.444C410.971 287.576 422.607 307.503 438.333 324.333C465.93 353.866 499.288 377.093 537.889 390.389C554.871 396.238 571.856 401.459 589.5 404.944C611.429 409.276 634.663 408 656.889 408C679.044 408 700.762 407.716 722.778 405C743.339 402.463 763.725 395.62 783.444 389.5C818.507 378.619 854.794 371.467 888.333 356.222C894.497 353.42 902.184 349.804 907.444 345.5C908.415 344.706 912.7 342 912 342" stroke="black" stroke-width="3" stroke-linecap="round"/>
</svg>
